<?xml version="1.0" standalone="no"?>
<!DOCTYPE svg PUBLIC "-//W3C//DTD SVG 20010904//EN"
 "http://www.w3.org/TR/2001/REC-SVG-20010904/DTD/svg10.dtd">
<svg version="1.0" xmlns="http://www.w3.org/2000/svg"
 width="128.000000pt" height="128.000000pt" viewBox="0 0 128.000000 128.000000"
 preserveAspectRatio="xMidYMid meet">
<metadata>
Created by potrace 1.14, written by Peter Selinger 2001-2017
</metadata>
<g transform="translate(0.000000,128.000000) scale(0.100000,-0.100000)"
fill="#000000" stroke="none">
<path d="M390 1087 l-55 -33 -2 -64 c-4 -108 -65 -202 -160 -247 l-38 -18 -3
-77 -3 -77 34 -14 c94 -40 151 -131 154 -246 1 -49 6 -77 15 -83 7 -4 36 -21
64 -38 l51 -30 33 25 c82 61 226 60 307 -1 17 -13 38 -24 45 -24 7 0 38 15 68
33 l55 33 1 61 c3 105 64 204 153 247 l46 21 3 76 3 75 -33 16 c-97 46 -158
146 -158 258 l0 66 -62 36 c-61 36 -64 37 -88 21 -61 -41 -86 -48 -166 -48
-74 0 -85 3 -133 33 -29 17 -58 32 -64 32 -7 0 -37 -15 -67 -33z m223 -179 c0
-23 -2 -56 -2 -71 -1 -28 -2 -28 -48 -23 -27 2 -49 5 -50 5 -9 3 27 75 55 109
39 49 48 45 45 -20z m137 -18 c36 -72 35 -75 -20 -78 -36 -2 -50 1 -51 10 -1
15 -1 128 0 142 2 16 52 -37 71 -74z m-267 28 c-6 -7 -16 -30 -23 -52 -11 -35
-14 -38 -43 -32 -42 9 -44 12 -16 42 41 45 114 82 82 42z m399 -36 c40 -36 40
-37 17 -43 -48 -14 -56 -10 -75 38 -11 27 -21 52 -23 56 -6 16 40 -14 81 -51z
m-489 -111 c4 0 14 -1 22 -1 16 0 20 -36 9 -77 -6 -20 -13 -23 -61 -23 l-56 0
6 33 c3 17 10 44 16 59 9 24 14 26 33 19 13 -5 26 -9 31 -10z m576 -28 c20
-69 17 -73 -44 -73 -30 0 -55 1 -56 3 0 1 -3 23 -5 49 -5 45 -4 47 23 51 68
10 72 9 82 -30z m-357 -16 c9 -50 1 -57 -66 -57 l-63 0 4 33 c7 52 8 52 66 49
47 -3 56 -7 59 -25z m188 -18 l0 -39 -60 0 c-50 0 -60 3 -61 18 -1 9 -2 26 -3
37 -1 17 7 21 54 25 30 3 58 4 63 2 4 -2 7 -21 7 -43z m-379 -101 c0 -2 3 -24
6 -50 4 -36 2 -48 -9 -48 -7 0 -30 -3 -50 -6 -35 -6 -37 -5 -47 32 -20 70 -17
74 44 74 30 0 55 -1 56 -2z m191 -10 c2 -6 2 -24 0 -40 -4 -27 -6 -28 -63 -28
l-59 0 0 40 0 40 59 0 c36 0 61 -5 63 -12z m188 -17 c0 -35 -9 -63 -19 -56 -4
2 -28 5 -54 6 -26 2 -47 6 -48 11 -1 4 -1 17 -1 28 0 11 0 25 1 30 1 6 28 10
61 10 60 0 60 0 60 -29z m176 -12 c-11 -71 -18 -77 -71 -65 l-46 11 5 45 c2
25 5 46 5 48 1 1 26 2 57 2 l57 0 -7 -41z m-363 -161 c-2 -112 1 -105 -29 -77
-33 29 -77 121 -64 129 6 4 29 7 53 8 l42 3 -2 -63z m162 52 c2 -3 -6 -29 -19
-56 -25 -53 -75 -108 -77 -83 0 8 -2 45 -2 82 l-2 68 48 -2 c26 -2 50 -5 52
-9z m-309 -57 c11 -27 21 -52 23 -58 6 -13 -48 22 -81 53 -33 30 -35 39 -10
45 42 11 50 6 68 -40z m434 37 c12 -8 10 -14 -12 -37 -28 -30 -93 -72 -87 -57
2 5 12 30 23 57 19 48 41 59 76 37z"/>
</g>
</svg>
